<?xml version="1.0" standalone="no"?>
<!DOCTYPE svg PUBLIC "-//W3C//DTD SVG 20010904//EN"
 "http://www.w3.org/TR/2001/REC-SVG-20010904/DTD/svg10.dtd">
<svg version="1.0" xmlns="http://www.w3.org/2000/svg"
 width="260.000000pt" height="260.000000pt" viewBox="0 0 260.000000 260.000000"
 preserveAspectRatio="xMidYMid meet">
<metadata>
Created by potrace 1.11, written by Peter Selinger 2001-2013
</metadata>
<g transform="translate(0.000000,260.000000) scale(0.100000,-0.100000)"
fill="#000000" stroke="none">
<path d="M850 2585 c-25 -8 -55 -17 -66 -19 -39 -8 -175 -75 -227 -112 -133
-96 -352 -331 -361 -387 -1 -7 -4 -16 -7 -22 -4 -5 -10 -23 -14 -40 -12 -44
-12 -45 -14 -47 -8 -12 -15 -143 -15 -283 0 -155 5 -226 18 -295 3 -14 8 -45
11 -70 6 -48 12 -85 15 -85 1 0 3 -11 4 -25 2 -14 6 -34 9 -45 3 -11 9 -34 12
-52 3 -18 14 -47 25 -66 23 -39 71 -157 64 -157 -3 0 0 -8 5 -18 6 -11 12 -30
15 -43 2 -13 7 -42 11 -63 l8 -39 -34 25 c-19 14 -62 42 -96 62 -34 20 -76 54
-93 74 -36 44 -64 124 -56 157 9 34 49 57 97 57 52 -1 39 17 -17 25 -84 11
-139 -44 -130 -129 10 -90 70 -172 157 -215 65 -31 120 -55 133 -57 29 -5 46
-25 52 -60 3 -21 8 -48 10 -60 2 -11 6 -39 9 -61 3 -22 8 -56 11 -75 3 -19 7
-60 9 -90 2 -30 5 -55 5 -55 4 0 9 -44 15 -137 7 -89 11 -141 14 -170 1 -5 13
-8 29 -8 25 0 27 3 24 37 -8 124 -28 340 -37 393 -2 14 -7 50 -10 80 -4 30 -9
64 -11 75 -12 58 -27 152 -28 168 0 9 -4 17 -8 17 -4 0 -6 8 -6 18 2 31 -42
173 -76 246 -19 39 -39 91 -45 116 -16 69 -33 162 -36 195 -2 17 -4 30 -5 30
-7 0 -23 210 -24 310 -1 91 15 270 24 270 1 0 3 11 6 25 2 14 18 52 34 86 34
70 203 248 310 327 36 26 71 52 78 57 6 6 12 8 12 4 0 -3 6 -1 13 5 16 13 142
61 177 67 14 3 39 8 55 13 49 12 390 0 416 -15 3 -2 21 -6 40 -9 19 -3 42 -8
51 -11 9 -3 25 -7 36 -9 39 -7 168 -74 197 -102 17 -15 57 -59 90 -98 33 -38
74 -84 93 -102 45 -44 59 -85 57 -168 -1 -78 -10 -102 -29 -86 -6 6 -21 10
-31 10 -11 0 -53 2 -92 4 -40 3 -73 1 -73 -2 0 -4 -13 -12 -30 -18 -30 -11
-73 -70 -64 -85 3 -5 16 5 29 22 l22 30 16 -24 c21 -32 51 -41 87 -26 30 12
46 41 35 60 -5 8 16 10 64 7 73 -3 69 -1 145 -72 31 -28 74 -65 122 -102 23
-18 61 -58 85 -90 24 -32 46 -60 49 -63 3 -3 23 -32 44 -65 99 -150 172 -307
201 -435 25 -109 26 -116 30 -219 3 -111 -2 -130 -86 -294 l-60 -119 6 -76 c3
-43 7 -109 9 -147 2 -39 7 -85 10 -102 6 -28 10 -31 29 -24 20 8 22 15 22 85
0 42 -2 76 -5 76 -3 0 -6 27 -7 60 -2 34 -5 72 -7 86 -3 17 16 66 60 153 35
71 70 149 77 173 15 52 13 185 -4 265 -7 32 -13 63 -14 68 -2 19 -17 70 -38
135 -22 68 -116 263 -129 268 -5 2 -8 10 -8 17 0 8 -7 18 -16 23 -9 5 -14 11
-12 14 5 8 -105 156 -154 208 -24 25 -59 58 -79 72 -20 15 -61 50 -92 78 l-57
52 2 81 c1 108 -18 149 -116 252 -42 44 -86 94 -98 111 -45 64 -198 151 -298
169 -18 3 -37 8 -41 10 -4 3 -24 7 -45 10 -22 3 -50 8 -64 11 -14 3 -106 8
-205 10 -141 3 -190 1 -225 -11z"/>
<path d="M1387 2379 c-16 -4 -35 -13 -43 -20 -8 -6 -14 -8 -14 -4 0 16 -50
-50 -51 -67 -1 -10 -2 -21 -3 -25 -1 -5 -5 -24 -9 -44 -4 -19 -17 -46 -28 -58
-18 -19 -28 -21 -63 -17 -48 7 -81 13 -104 20 -9 3 -33 7 -52 10 -19 3 -46 8
-60 11 -86 19 -235 24 -293 11 -36 -8 -98 -48 -130 -82 -14 -14 -35 -49 -47
-78 -12 -28 -26 -59 -31 -68 -7 -13 -5 -18 6 -18 8 0 15 9 15 20 0 11 4 20 8
20 4 0 14 15 20 34 28 75 124 137 216 139 49 1 123 -7 176 -18 39 -9 102 -23
130 -29 142 -32 189 -36 223 -19 33 17 69 89 73 146 4 63 43 92 129 96 40 2
64 -5 121 -34 77 -38 192 -130 193 -155 1 -12 3 -13 10 -1 22 35 -182 210
-262 225 -12 3 -22 5 -22 6 0 6 -84 5 -108 -1z"/>
<path d="M1533 2078 c-35 -39 -72 -101 -67 -110 3 -5 27 12 52 37 52 50 55 51
103 31 39 -16 129 -28 129 -17 0 8 -9 12 -103 55 -70 32 -88 32 -114 4z"/>
<path d="M1338 1945 c16 -33 234 -251 272 -272 19 -11 65 -36 102 -57 37 -21
79 -51 94 -69 l26 -31 -26 -23 c-15 -13 -39 -25 -54 -29 -15 -3 -34 -9 -42
-13 -8 -4 -24 -6 -35 -4 -21 3 -83 6 -101 4 -19 -2 -51 -35 -59 -61 -4 -14
-17 -33 -28 -42 -21 -19 -22 -19 -52 -23 -11 -1 -34 -5 -52 -8 -22 -4 -37 0
-52 14 -25 24 -30 24 -24 0 3 -11 17 -24 31 -30 34 -13 103 -12 120 1 6 6 12
7 12 4 0 -14 60 29 66 46 3 10 10 18 15 18 6 0 8 4 5 9 -3 5 0 13 7 18 18 15
56 22 62 13 12 -19 130 -2 182 25 62 33 79 67 56 111 -24 48 -48 67 -140 114
-48 25 -91 49 -94 53 -3 5 -9 7 -12 5 -5 -3 -136 105 -205 171 -23 23 -45 41
-48 41 -4 0 -13 8 -21 18 -13 16 -13 15 -5 -3z"/>
<path d="M826 1895 c-16 -13 -31 -32 -33 -42 -9 -41 -22 -111 -27 -148 -2 -16
-5 -34 -6 -40 -1 -5 -2 -17 -1 -25 3 -24 27 26 57 115 14 44 31 85 38 91 6 7
56 15 111 18 144 8 188 16 174 30 -3 3 -43 8 -89 11 -196 15 -193 15 -224 -10z"/>
<path d="M455 1838 c3 -18 8 -40 10 -48 2 -8 7 -30 10 -49 3 -19 10 -42 15
-51 5 -10 7 -20 4 -23 -5 -5 35 -97 43 -97 10 0 -19 160 -44 240 -2 8 -4 17
-5 20 0 3 -4 13 -9 23 -16 28 -30 19 -24 -15z"/>
<path d="M1815 1816 c-52 -35 -135 -47 -177 -25 -30 16 -34 2 -7 -20 53 -43
129 -33 195 25 37 33 29 48 -11 20z"/>
<path d="M1044 1733 c-21 -8 -45 -15 -51 -15 -7 -1 -13 -4 -13 -8 0 -4 -18
-15 -41 -25 -22 -10 -45 -27 -51 -38 -8 -15 -7 -18 4 -11 7 5 15 9 18 10 3 0
18 6 33 12 34 14 50 15 43 3 -18 -28 39 -72 83 -65 46 8 77 53 59 87 -13 26 7
21 42 -10 20 -17 28 -33 25 -45 -3 -10 -8 -28 -11 -40 -6 -20 -5 -21 9 -10 37
31 28 106 -17 136 -43 28 -90 35 -132 19z"/>
<path d="M1078 1530 c-55 -16 -111 -60 -77 -60 18 0 119 51 119 61 0 10 -5 10
-42 -1z"/>
<path d="M580 1478 c0 -23 -8 -32 -45 -49 -47 -22 -100 -75 -115 -115 -17 -43
-14 -164 5 -253 8 -36 44 -130 70 -181 30 -58 241 -280 266 -280 11 0 11 2 -1
10 -8 5 -12 10 -8 10 4 0 -5 12 -19 28 -14 15 -42 47 -62 72 -20 25 -38 47
-41 50 -42 41 -125 194 -115 210 3 6 2 10 -4 10 -5 0 -13 15 -17 33 -4 17 -9
37 -10 42 -18 69 -26 133 -25 194 1 58 38 114 102 153 27 17 49 32 49 33 0 2
-7 16 -15 31 l-15 29 0 -27z"/>
<path d="M1736 1305 c-17 -12 -44 -33 -60 -48 -16 -15 -34 -27 -40 -28 -6 0
-22 -3 -36 -5 -14 -3 -43 -6 -65 -8 -22 -2 -41 -5 -42 -6 -2 -1 -6 -3 -10 -4
-44 -10 -165 -106 -267 -213 -70 -73 -97 -89 -151 -87 -41 1 -148 24 -161 35
-6 5 -14 6 -17 2 -4 -3 -13 0 -22 7 -8 7 -15 9 -15 5 0 -4 -7 -2 -15 5 -10 9
-15 9 -15 1 0 -10 7 -13 26 -10 4 0 10 -3 13 -8 7 -10 78 -42 106 -47 11 -3
38 -8 60 -13 47 -11 106 -9 128 3 9 5 51 43 94 84 157 151 244 210 302 205 17
-1 31 1 31 5 0 4 6 8 13 7 48 -1 69 8 118 53 29 27 66 52 81 55 16 4 66 -5
129 -24 56 -17 105 -28 110 -25 5 3 9 1 9 -4 0 -5 7 -9 16 -9 15 0 15 2 -1 13
-9 7 -23 10 -31 7 -8 -3 -14 0 -14 6 0 6 -8 11 -18 11 -10 0 -21 3 -25 6 -14
15 -145 54 -171 52 -17 -2 -44 -12 -60 -23z"/>
<path d="M1755 1140 c-4 -6 -13 -9 -21 -6 -8 3 -34 -1 -57 -8 -23 -8 -62 -20
-87 -26 -81 -21 -151 -78 -243 -199 -23 -31 -45 -58 -48 -61 -3 -3 -8 -12 -12
-20 -4 -8 -14 -25 -22 -37 -13 -17 -14 -23 -3 -29 7 -4 10 -4 7 0 -15 16 215
245 274 274 109 53 173 65 354 66 114 1 173 5 173 12 0 5 -10 10 -22 11 -13 0
-50 4 -83 9 -33 4 -89 8 -125 8 -36 1 -68 5 -71 10 -4 4 -10 3 -14 -4z"/>
<path d="M1910 981 c0 -11 58 -61 71 -61 20 0 7 -31 -28 -65 -43 -40 -121 -82
-171 -90 -18 -3 -65 -8 -104 -10 l-71 -5 -41 45 c-39 41 -44 44 -67 33 -26
-12 -74 -66 -67 -74 3 -2 16 5 31 16 37 29 54 25 77 -20 11 -21 28 -44 38 -49
24 -13 193 -6 221 8 11 7 21 9 21 6 0 -10 75 33 107 61 71 65 99 136 69 176
-20 27 -86 49 -86 29z"/>
<path d="M825 390 c3 -5 13 -9 23 -8 34 0 117 -25 172 -52 19 -10 40 -19 45
-21 6 -2 51 -32 100 -67 93 -65 247 -146 300 -157 152 -31 260 -26 418 21 217
63 363 141 420 224 28 40 19 44 -15 7 -31 -31 -148 -104 -148 -91 0 4 -10 0
-22 -8 -30 -19 -163 -61 -233 -73 -11 -2 -35 -8 -54 -14 -18 -6 -36 -10 -40
-9 -3 0 -8 0 -11 -1 -34 -13 -183 -18 -240 -9 -92 16 -187 56 -335 143 -81 47
-150 79 -210 99 -55 17 -178 29 -170 16z"/>
<path d="M686 308 c3 -7 35 -34 72 -61 82 -58 130 -97 195 -160 27 -26 51 -46
53 -45 7 7 -9 48 -18 48 -5 0 -7 4 -4 8 7 11 -62 95 -108 132 -43 34 -77 51
-145 75 -53 18 -52 18 -45 3z"/>
</g>
</svg>
